<svg xmlns="http://www.w3.org/2000/svg" width="256" height="256" viewBox="0 0 100 100"><rect width="100" height="100" rx="20" fill="#3a57e4"></rect><path d="M44.75 35.81L44.75 35.81Q48.27 37.35 48.27 39.61L48.27 39.61Q48.27 40.54 47.39 42.60Q46.51 44.67 45.90 46.20L45.90 46.20L39.85 60.95Q39.03 63.37 37.10 64.36L37.10 64.36Q36.28 64.74 35.01 64.74Q33.75 64.74 32.56 63.78Q31.38 62.82 31.00 61.83L31.00 61.83L30.56 60.89Q30.12 59.79 27.31 52.31L27.31 52.31Q26.76 53.63 25.69 56.63Q24.62 59.63 24.32 60.37Q24.01 61.11 23.93 61.36Q23.85 61.61 23.46 62.27Q23.08 62.93 22.58 63.42L22.58 63.42Q21.26 64.74 19.56 64.74Q17.85 64.74 16.70 63.78Q15.54 62.82 15.16 61.83L15.16 61.83L6.85 41.59Q6.30 39.94 6.30 39.44L6.30 39.44Q6.30 37.24 9.44 35.98L9.44 35.98Q11.20 35.26 12.30 35.26Q13.40 35.26 14.09 35.73Q14.77 36.20 15.05 36.66Q15.32 37.13 15.49 37.63L15.49 37.63Q16.42 39.83 19.39 47.97L19.39 47.97L22.64 39.06Q22.97 37.95 23.85 37.13L23.85 37.13Q25.44 35.54 27.09 35.54Q28.74 35.54 29.93 36.42Q31.11 37.30 31.55 38.18L31.55 38.18L31.99 39.11Q34.74 46.81 35.23 47.91L35.23 47.91L38.59 38.78Q39.91 35.26 42.55 35.26L42.55 35.26Q43.59 35.26 44.75 35.81ZM60.75 39.44L60.75 39.44Q63.34 35.54 66.97 35.54L66.97 35.54Q72.58 35.54 75.33 40.32L75.33 40.32Q75.93 39.50 76.78 38.59Q77.64 37.68 79.51 36.61Q81.38 35.54 83.36 35.54L83.36 35.54Q87.76 35.54 90.73 38.92Q93.70 42.30 93.70 50.11L93.70 50.11L93.70 59.73Q93.70 61 93.62 61.63Q93.53 62.27 93.09 63.09L93.09 63.09Q92.38 64.58 88.86 64.58L88.86 64.58Q85.39 64.58 84.62 63.04L84.62 63.04Q84.24 62.21 84.16 61.58Q84.07 60.95 84.07 59.68L84.07 59.68L84.07 50.06Q84.07 45.27 80.66 45.27L80.66 45.27Q78.74 45.27 78.05 46.54Q77.36 47.80 77.36 50.11L77.36 50.11L77.36 59.73Q77.36 61.05 77.28 61.66Q77.20 62.27 76.76 63.09L76.76 63.09Q75.99 64.58 72.47 64.58L72.47 64.58Q69.00 64.58 68.23 63.04L68.23 63.04Q67.85 62.21 67.77 61.58Q67.68 60.95 67.68 59.68L67.68 59.68L67.68 50.06Q67.68 45.27 64.27 45.27L64.27 45.27Q60.97 45.27 60.97 50.06L60.97 50.06L60.97 59.79Q60.97 61.05 60.89 61.69Q60.81 62.32 60.37 63.15L60.37 63.15Q59.54 64.58 56.08 64.58L56.08 64.58Q52.61 64.58 51.84 63.09L51.84 63.09Q51.46 62.27 51.38 61.66Q51.29 61.05 51.29 59.73L51.29 59.73L51.29 40.38Q51.29 39.11 51.38 38.48Q51.46 37.84 51.90 37.08L51.90 37.08Q52.72 35.59 55.80 35.59Q58.88 35.59 59.82 36.58Q60.75 37.57 60.75 39.44Z" fill="#ffffff"></path></svg>